<svg xmlns="http://www.w3.org/2000/svg" xmlns:xlink="http://www.w3.org/1999/xlink" width="398.107" height="372" viewBox="0 0 398.107 372">
  <defs>
    <linearGradient id="linear-gradient" x1="0.5" x2="0.5" y2="1" gradientUnits="objectBoundingBox">
      <stop offset="0" stop-color="#bfacfe"/>
      <stop offset="0.803" stop-color="#8870ff"/>
      <stop offset="1" stop-color="#7a60ff"/>
    </linearGradient>
  </defs>
  <g id="Group_7618" data-name="Group 7618" transform="translate(-1725.081 -1400)">
    <rect id="Rectangle_2304" data-name="Rectangle 2304" width="192.955" height="192.955" rx="24" transform="matrix(-0.379, 0.925, -0.925, -0.379, 2123.188, 1473.219)" fill="#f2f6ff" opacity="0.55"/>
    <rect id="Rectangle_2305" data-name="Rectangle 2305" width="137.55" height="137.55" rx="24" transform="translate(1944.069 1449.064) rotate(105.38)" fill="#4fe3ef" opacity="0.12"/>
    <path id="Path_5223" data-name="Path 5223" d="M19.946,0H117.6A19.947,19.947,0,0,1,137.55,19.946V117.6A19.946,19.946,0,0,1,117.6,137.549H19.946A19.946,19.946,0,0,1,0,117.6V19.946A19.946,19.946,0,0,1,19.946,0Z" transform="matrix(-0.605, 0.796, -0.796, -0.605, 2118.002, 1625.283)" opacity="0.6" fill="url(#linear-gradient)"/>
    <path id="Path_5197" data-name="Path 5197" d="M349.141,348l-8.038,4.744,2.035,1.354L341,357.007l2.035,1.354,2.139-2.909,2.035,1.362Z" transform="translate(1544.604 1302.898)" fill="#1a1a1a" fill-rule="evenodd"/>
    <g id="Group_7617" data-name="Group 7617" transform="translate(1797.531 1463.65)">
      <path id="Path_5198" data-name="Path 5198" d="M392.254,97.96a2.96,2.96,0,0,0-2.96-2.96H170.96A2.96,2.96,0,0,0,168,97.96v276.8a2.96,2.96,0,0,0,2.96,2.96H389.294a2.96,2.96,0,0,0,2.96-2.96Z" transform="translate(-168 -95)" fill="#fff"/>
      <path id="Path_5199" data-name="Path 5199" d="M391.774,98.22a2.22,2.22,0,0,0-2.22-2.22H171.22A2.22,2.22,0,0,0,169,98.22v276.8a2.22,2.22,0,0,0,2.22,2.22H389.553a2.22,2.22,0,0,0,2.22-2.22Z" transform="translate(-168.26 -95.26)" fill="none" stroke="#e8e8e8" stroke-width="2"/>
    </g>
    <path id="Path_5200" data-name="Path 5200" d="M193.85,124.714a1.754,1.754,0,0,1,1.754-1.754H335.367a1.758,1.758,0,0,1,0,3.516H195.6a1.754,1.754,0,0,1-1.754-1.761Zm57.84,142.967a1.85,1.85,0,0,1,1.85-1.85h96.215a1.85,1.85,0,0,1,0,3.7H253.54A1.85,1.85,0,0,1,251.69,267.682Zm-57.84-133.59a1.754,1.754,0,0,1,1.754-1.761H350.983a1.758,1.758,0,0,1,0,3.516H195.6a1.754,1.754,0,0,1-1.754-1.761Zm57.84,142.842a1.485,1.485,0,0,1,1.48-1.48H366.407a1.48,1.48,0,0,1,0,2.96H253.17A1.48,1.48,0,0,1,251.69,276.933Zm-57.84-132.7a1.754,1.754,0,0,1,1.754-1.754H308.042a1.758,1.758,0,0,1,0,3.516H195.6a1.754,1.754,0,0,1-1.754-1.754Zm57.84,142.879a1.754,1.754,0,0,1,1.754-1.761H365.889a1.758,1.758,0,0,1,0,3.516H253.444A1.754,1.754,0,0,1,251.69,287.109Zm-57.84-113.2a1.754,1.754,0,0,1,1.754-1.761H378.323a1.758,1.758,0,0,1,0,3.516H195.6a1.754,1.754,0,0,1-1.754-1.754Zm0,142.871a1.754,1.754,0,0,1,1.754-1.761H378.323a1.758,1.758,0,0,1,0,3.516H195.6a1.754,1.754,0,0,1-1.754-1.754Zm0-134.678a1.754,1.754,0,0,1,1.754-1.754h174.9a1.758,1.758,0,0,1,0,3.516H195.6a1.754,1.754,0,0,1-1.754-1.761Zm0,142.879a1.754,1.754,0,0,1,1.754-1.761h174.9a1.758,1.758,0,0,1,0,3.516H195.6a1.754,1.754,0,0,1-1.754-1.761Zm0-134.678a1.754,1.754,0,0,1,1.754-1.754H374.415a1.758,1.758,0,0,1,0,3.516H195.6a1.754,1.754,0,0,1-1.754-1.761Zm0,142.879a1.754,1.754,0,0,1,1.754-1.761H374.415a1.758,1.758,0,0,1,0,3.516H195.6a1.754,1.754,0,0,1-1.754-1.761Zm0-134.678a1.754,1.754,0,0,1,1.754-1.761H374.415a1.758,1.758,0,0,1,0,3.516H195.6A1.754,1.754,0,0,1,193.85,198.5Zm0,8.193a1.754,1.754,0,0,1,1.754-1.754h167.1a1.758,1.758,0,1,1,0,3.516H195.6a1.754,1.754,0,0,1-1.754-1.754Zm0,8.2a1.754,1.754,0,0,1,1.754-1.754h167.1a1.758,1.758,0,1,1,0,3.516H195.6a1.754,1.754,0,0,1-1.754-1.761Zm0,8.2a1.754,1.754,0,0,1,1.754-1.754h167.1a1.754,1.754,0,0,1,0,3.508H195.6a1.754,1.754,0,0,1-1.754-1.754Zm0,8.2a1.754,1.754,0,0,1,1.754-1.761h167.1a1.758,1.758,0,1,1,0,3.516H195.6a1.754,1.754,0,0,1-1.754-1.754Zm57.84,19.909a1.754,1.754,0,0,1,1.754-1.754h77.3a1.758,1.758,0,1,1,0,3.516h-77.3a1.754,1.754,0,0,1-1.754-1.761Zm0,43.859a1.85,1.85,0,0,1,1.85-1.85h88.814a1.85,1.85,0,1,1,0,3.7H253.54A1.85,1.85,0,0,1,251.69,295.066Zm0-35.659a1.754,1.754,0,0,1,1.754-1.761h77.3a1.758,1.758,0,1,1,0,3.516h-77.3A1.754,1.754,0,0,1,251.69,259.407Z" transform="translate(1622.572 1361.383)" fill="#f4f4f4"/>
    <rect id="Rectangle_2307" data-name="Rectangle 2307" width="48.107" height="53.288" rx="6" transform="translate(1816.533 1607.971)" fill="#f4f4f4"/>
    <rect id="Rectangle_2308" data-name="Rectangle 2308" width="30" height="30" rx="4" transform="translate(1962.081 1712)" fill="#ff8000"/>
    <path id="Path_5201" data-name="Path 5201" d="M223.8,440.75h10.117v11.8h-5.055v3.375H218.75V443.281h5.062V440.75Zm-4.219,3.375v10.954h8.437v-2.531H223.8v-8.422h-4.219Zm5.062-.844v-1.687h8.437v10.117h-8.445v-8.43Zm7.586,4.219a3.375,3.375,0,1,1-3.371-3.217,3.375,3.375,0,0,1,3.371,3.217Zm-5.758.836a2.531,2.531,0,1,0,2.813-3.33v3.33Zm-.148-.844A2.531,2.531,0,0,1,228.445,445v2.494h-2.109Z" transform="translate(1750.302 1278.793)" fill="#fff" fill-rule="evenodd"/>
    <rect id="Rectangle_2309" data-name="Rectangle 2309" width="31" height="30" rx="4" transform="translate(2000.081 1742)" fill="#f7a2a5"/>
    <path id="Path_5202" data-name="Path 5202" d="M180.62,483.053l-1.576,6.284,1.576,6.284-6.291-1.569-6.276,1.569,1.569-6.284-1.569-6.284,6.284,1.569Zm1.3-1.3-7.586,1.895-7.586-1.895,1.895,7.586-1.895,7.586,7.586-1.895,7.586,1.895-1.895-7.586Z" transform="translate(1840.788 1268.138)" fill="#fff" fill-rule="evenodd"/>
    <rect id="Rectangle_2310" data-name="Rectangle 2310" width="40" height="39" rx="4" transform="translate(2000.081 1688)" fill="#46dfed"/>
    <path id="Path_5203" data-name="Path 5203" d="M170.614,426.309a14.211,14.211,0,0,1-4.145,2.842,13.2,13.2,0,0,1-4.108-2.709c-2.687-2.6-4.374-6.291-4.589-11.339l4.159-1.554,5-1.88h-.873l5,1.872,3.434,1.288.725.274a16.158,16.158,0,0,1-4.6,11.205Zm5.869-12.064-9.991-3.745-9.992,3.745c.118,13.4,9.992,16.238,9.992,16.238S176.365,427.263,176.483,414.245Z" transform="translate(1853.813 1286.655)" fill="#fff" fill-rule="evenodd"/>
    <rect id="Rectangle_2311" data-name="Rectangle 2311" width="172" height="68" rx="6.39" transform="translate(1725.081 1502)" fill="#e3eefd"/>
    <path id="Path_5204" data-name="Path 5204" d="M389.449,166.109A2.109,2.109,0,0,0,387.34,164h-23.2l-8.437,8.437v31.64a2.109,2.109,0,0,0,2.109,2.109h29.53a2.109,2.109,0,0,0,2.109-2.109V166.109Z" transform="translate(1493.417 1350.717)" fill="#fff"/>
    <path id="Path_5205" data-name="Path 5205" d="M387.34,205.128H357.809a1.052,1.052,0,0,1-1.058-1.051v-31.2l7.823-7.816H387.34a1.046,1.046,0,0,1,1.051,1.051v37.968A1.046,1.046,0,0,1,387.34,205.128ZM364.137,164h23.2a2.109,2.109,0,0,1,2.109,2.109v37.968a2.109,2.109,0,0,1-2.109,2.109h-29.53a2.109,2.109,0,0,1-2.109-2.109v-31.64Z" transform="translate(1493.417 1350.717)" fill="#e8e8e8" fill-rule="evenodd"/>
    <path id="Path_5206" data-name="Path 5206" d="M398.337,164l-8.437,8.437h8.437Z" transform="translate(1459.217 1350.717)" fill="#e8e8e8"/>
    <rect id="Rectangle_2312" data-name="Rectangle 2312" width="24.942" height="14.802" rx="2.85" transform="translate(1861.958 1535.788)" fill="#f23030"/>
    <path id="Path_5207" data-name="Path 5207" d="M469.9,120.923A2.923,2.923,0,0,1,472.823,118h32.158l11.694,11.694v43.852a2.923,2.923,0,0,1-2.923,2.923H472.823a2.923,2.923,0,0,1-2.923-2.923V120.923Z" transform="translate(1285.63 1362.672)" fill="#fff"/>
    <path id="Path_5208" data-name="Path 5208" d="M472.823,175.011h40.928a1.464,1.464,0,0,0,1.465-1.465V130.3l-10.843-10.843H472.823a1.469,1.469,0,0,0-1.465,1.465v52.622A1.458,1.458,0,0,0,472.823,175ZM504.981,118H472.823a2.923,2.923,0,0,0-2.923,2.923v52.622a2.923,2.923,0,0,0,2.923,2.923h40.928a2.923,2.923,0,0,0,2.923-2.923V129.694Z" transform="translate(1285.63 1362.672)" fill="#e8e8e8" fill-rule="evenodd"/>
    <path id="Path_5209" data-name="Path 5209" d="M517.3,118l11.694,11.694H517.3Z" transform="translate(1273.311 1362.672)" fill="#e8e8e8"/>
    <rect id="Rectangle_2313" data-name="Rectangle 2313" width="36.932" height="19.983" rx="3.95" transform="translate(1767.453 1510.143)" fill="#4c98e4"/>
    <path id="Path_5210" data-name="Path 5210" d="M449.2,210.294A2.294,2.294,0,0,1,451.494,208h25.238l9.177,9.177v34.415a2.294,2.294,0,0,1-2.294,2.294H451.494a2.294,2.294,0,0,1-2.294-2.294Z" transform="translate(1325.491 1339.282)" fill="#fff"/>
    <path id="Path_5211" data-name="Path 5211" d="M451.494,252.74h32.121a1.148,1.148,0,0,0,1.147-1.147V217.651l-8.511-8.5H451.494a1.148,1.148,0,0,0-1.147,1.147v41.3A1.148,1.148,0,0,0,451.494,252.74ZM476.732,208H451.494a2.294,2.294,0,0,0-2.294,2.294v41.3a2.294,2.294,0,0,0,2.294,2.294h32.121a2.294,2.294,0,0,0,2.294-2.294V217.177Z" transform="translate(1325.491 1339.282)" fill="#e8e8e8" fill-rule="evenodd"/>
    <path id="Path_5212" data-name="Path 5212" d="M486.4,208l9.177,9.177H486.4Z" transform="translate(1315.823 1339.282)" fill="#e8e8e8"/>
    <rect id="Rectangle_2314" data-name="Rectangle 2314" width="26.792" height="15.542" rx="3.1" transform="translate(1791.092 1570.485)" fill="#ff8000"/>
    <path id="Path_5213" data-name="Path 5213" d="M521.6,209.7a1.7,1.7,0,0,1,1.7-1.7h18.725l6.809,6.809v25.534a1.7,1.7,0,0,1-1.7,1.7H523.3a1.7,1.7,0,0,1-1.7-1.7V209.7Z" transform="translate(1208.633 1339.282)" fill="#fff"/>
    <path id="Path_5214" data-name="Path 5214" d="M523.3,241.194h23.832a.847.847,0,0,0,.851-.851V215.164l-6.306-6.313H523.3a.851.851,0,0,0-.851.851v30.641A.851.851,0,0,0,523.3,241.194ZM542.027,208H523.3a1.7,1.7,0,0,0-1.7,1.7v30.641a1.7,1.7,0,0,0,1.7,1.7h23.832a1.7,1.7,0,0,0,1.7-1.7V214.809L542.027,208Z" transform="translate(1208.632 1339.282)" fill="#e8e8e8" fill-rule="evenodd"/>
    <path id="Path_5215" data-name="Path 5215" d="M549.2,208l6.809,6.809H549.2Z" transform="translate(1201.46 1339.282)" fill="#e8e8e8"/>
    <rect id="Rectangle_2315" data-name="Rectangle 2315" width="18.947" height="11.842" rx="2.3" transform="translate(1744.65 1564.342)" fill="#0c4"/>
    <path id="Path_5217" data-name="Path 5217" d="M417.59,193.787l6.476-5.9L423.1,187l-8.1,7.4,8.1,7.4.962-.888-6.483-5.9h18.14v-1.229Z" transform="translate(1403.254 1344.74)" fill="#9e9e9e"/>
    <path id="Path_5218" data-name="Path 5218" d="M480.443,363.94l-14.4,20.575,16.764-2.96a.74.74,0,0,0,.592-.851Zm54.235,17.193L514.1,395.543l16.756,2.953a.74.74,0,0,0,.859-.6Z" transform="translate(1266.524 1298.755)" fill="#fff" fill-rule="evenodd" opacity="0.3"/>
    <path id="Path_5219" data-name="Path 5219" d="M194.329,269.972a.74.74,0,0,0-.651-.814,21.54,21.54,0,0,1-2.405-.444.742.742,0,0,0-.348,1.443,23.333,23.333,0,0,0,2.576.466.74.74,0,0,0,.829-.644Zm-2.465-137.335c-.052,1.65-.126,3.293-.274,4.914a.743.743,0,1,0,1.48.126c.148-1.658.222-3.331.274-5a.74.74,0,1,0-1.48-.044Zm.866-7.512a.74.74,0,0,0,.762-.718c.022-.836.052-1.658.1-2.465s.056-1.628.044-2.442a.74.74,0,1,0-1.48.015q.022,1.221-.044,2.354c-.044.814-.074,1.65-.1,2.494a.74.74,0,0,0,.718.762Zm-1.658,19.909a.74.74,0,0,0-.925.488c-.237.777-.518,1.532-.814,2.265-.355.822-.651,1.665-.925,2.5a.74.74,0,1,0,1.406.459c.266-.814.548-1.613.873-2.383q.5-1.18.873-2.405a.74.74,0,0,0-.488-.925Zm1.214-32.757a.74.74,0,0,0,.607-.851c-.252-1.562-.577-3.16-.962-4.759a.742.742,0,1,0-1.443.348q.56,2.305.947,4.648a.74.74,0,0,0,.851.614Zm-8.215,154.091a.74.74,0,0,0-.17-1.036,25.866,25.866,0,0,1-3.7-3.234.741.741,0,0,0-1.073,1.021,27.3,27.3,0,0,0,3.915,3.419.74.74,0,0,0,1.036-.17Zm3.871-103.075c-.037,1.532-.148,3.1-.318,4.633a.741.741,0,1,0,1.473.163c.17-1.569.289-3.182.326-4.759a.74.74,0,0,0-1.48-.037Zm-.74,11.723a.74.74,0,0,0-.9.54c-.207.829-.414,1.569-.629,2.206-.244.74-.5,1.488-.77,2.243a.742.742,0,1,0,1.4.5l.777-2.272c.222-.681.444-1.458.659-2.317a.74.74,0,0,0-.54-.9Zm1.007-18.777a.74.74,0,0,0,.533-.9,10.806,10.806,0,0,0-2.354-4.559.74.74,0,0,0-1.11.977,9.3,9.3,0,0,1,2.028,3.952.74.74,0,0,0,.9.533Zm-1.887,1.71a.74.74,0,0,0-1.021.222,11.534,11.534,0,0,1-1.547,1.88,7.508,7.508,0,0,1-1.273.977.74.74,0,1,0,.777,1.258,8.976,8.976,0,0,0,1.525-1.177,12.426,12.426,0,0,0,1.754-2.132.74.74,0,0,0-.215-1.029ZM189.1,99.894a.74.74,0,0,0,.422-.962q-.866-2.272-1.924-4.463a.74.74,0,1,0-1.332.644q1.032,2.135,1.88,4.352a.74.74,0,0,0,.955.429Zm-6.1,87.089a.74.74,0,0,0-.962.392c-.622,1.458-1.258,2.909-1.924,4.344a.74.74,0,1,0,1.332.622q1.012-2.178,1.954-4.389a.74.74,0,0,0-.4-.97Zm-7.993,69.5a.74.74,0,0,0,.259-1.014q-1.271-2.154-2.339-4.419a.742.742,0,1,0-1.34.637q1.1,2.323,2.405,4.537A.74.74,0,0,0,175.012,256.48Zm2.59-57.98a.74.74,0,0,0-1.007.311c-.37.7-.747,1.406-1.125,2.087q-.48.863-.947,1.732a.74.74,0,0,0,1.3.7c.311-.577.622-1.147.94-1.71l1.14-2.109a.74.74,0,0,0-.3-1Zm5.7-109.988a.74.74,0,0,0,.163-1.036,33.572,33.572,0,0,0-3.16-3.752.741.741,0,1,0-1.058,1.036,32.055,32.055,0,0,1,3.02,3.59.74.74,0,0,0,1.036.163Zm-4.056,59.453a.74.74,0,0,0-.681-.792,18.906,18.906,0,0,0-2.59,0,7.711,7.711,0,0,0-2.5.592.741.741,0,0,0,.6,1.354,5.936,5.936,0,0,1,2.013-.466,15.8,15.8,0,0,1,2.368,0,.74.74,0,0,0,.792-.688ZM178.032,163.3a.74.74,0,0,0-.785-.7,8.966,8.966,0,0,1-3.227-.363.741.741,0,1,0-.444,1.414,10.712,10.712,0,0,0,3.752.429.74.74,0,0,0,.7-.777Zm-5.462,44.858a.74.74,0,0,0-.977.37q-.827,1.794-1.569,3.627a.74.74,0,0,0,1.369.555q.733-1.81,1.539-3.567a.74.74,0,0,0-.363-.984Zm-3.242,36.088a.74.74,0,0,0,.451-.947c-.281-.8-.548-1.6-.807-2.383-.2-.614-.377-1.221-.533-1.835a.741.741,0,1,0-1.436.37c.163.644.355,1.288.562,1.924q.393,1.215.814,2.42a.74.74,0,0,0,.947.444Zm-.555-26.348a.74.74,0,0,0-.918.5q-.555,1.921-.97,3.863a.74.74,0,1,0,1.451.3q.4-1.889.94-3.745a.74.74,0,0,0-.511-.918Zm-2,15.653a.74.74,0,0,0,.7-.785,35.008,35.008,0,0,1,0-3.841.74.74,0,1,0-1.473-.074,35.985,35.985,0,0,0,0,4,.74.74,0,0,0,.777.7Zm3.316-73.922a.74.74,0,0,0,.577-.873,5.924,5.924,0,0,1-.1-1.576q.053-1.132.2-2.257a.74.74,0,1,0-1.465-.2c-.111.792-.17,1.591-.215,2.376a7.588,7.588,0,0,0,.133,1.954A.74.74,0,0,0,170.09,159.629Zm3.93-79.784a.74.74,0,0,0-.34-.984,19.594,19.594,0,0,0-2.309-.94q-1.483-.5-2.99-.925a.74.74,0,1,0-.4,1.421c.962.274,1.924.57,2.916.9a18.514,18.514,0,0,1,2.139.873.74.74,0,0,0,.984-.34Zm-15.239-3.93a.74.74,0,0,0-.666-.807c-1.021-.1-2.058-.17-3.116-.222a.74.74,0,1,0-.074,1.473c1.036.052,2.058.126,3.049.222a.74.74,0,0,0,.814-.666Zm-6.52,6.4a1.11,1.11,0,0,0,.363-1.525,15.239,15.239,0,0,0-5.307-5.4,16.112,16.112,0,0,0,5.27-4.9,1.11,1.11,0,0,0-1.865-1.2,14.423,14.423,0,0,1-5.884,4.885.281.281,0,0,0-.1.044,1.118,1.118,0,0,0-.666,1.791,2.522,2.522,0,0,0,.259.281l.015.015a1.109,1.109,0,0,0,.333.222,12.8,12.8,0,0,1,6.047,5.418,1.11,1.11,0,0,0,1.532.37Z" transform="translate(1845.337 1375.449)" fill="#cdf" fill-rule="evenodd"/>
    <path id="Path_5222" data-name="Path 5222" d="M451.494,480.162v4.085h1.229v-4.885h0v-1.221h-6.113v1.214h3.967a9.759,9.759,0,1,1-13.019-14.24l-.673-1.014a10.985,10.985,0,1,0,14.61,16.06Zm16.867.5a.654.654,0,1,0,.925-.925l-1.384-1.384a.654.654,0,1,0-.925.925Zm4.152-1.384a.654.654,0,1,0-.925-.925l-1.384,1.384a.654.654,0,0,0,.925.925Zm-3.227,3.227a.654.654,0,0,0-.925-.925l-1.384,1.384a.654.654,0,0,0,.925.925Zm3.227,1.384a.648.648,0,0,1-.925,0l-1.384-1.384a.654.654,0,0,1,.925-.925l1.384,1.384a.651.651,0,0,1,0,.925ZM457.26,455.5a.654.654,0,0,0,.925-.925l-1.384-1.384a.654.654,0,0,0-.925.925Zm4.152-1.384a.654.654,0,1,0-.925-.925l-1.384,1.384a.654.654,0,0,0,.925.925Zm-3.227,3.227a.654.654,0,0,0-.925-.925l-1.384,1.384a.654.654,0,0,0,.925.925Zm3.227,1.384a.648.648,0,0,1-.925,0l-1.384-1.384a.654.654,0,0,1,.925-.925l1.384,1.384a.651.651,0,0,1,0,.925Z" transform="translate(1353.69 1275.609)" fill="#4fe3ef" fill-rule="evenodd"/>
    <text id="JPG" transform="translate(1772.081 1526)" fill="#fff" font-size="16" font-family="SegoeUI-Semibold, Segoe UI" font-weight="600"><tspan x="0" y="0">JPG</tspan></text>
    <text id="BMP" transform="translate(1863.081 1546)" fill="#fff" font-size="10" font-family="SegoeUI-Semibold, Segoe UI" font-weight="600"><tspan x="0" y="0">BMP</tspan></text>
    <text id="PNG_" data-name="PNG " transform="translate(1745.081 1574)" fill="#fff" font-size="8" font-family="SegoeUI-Semibold, Segoe UI" font-weight="600"><tspan x="0" y="0">PNG </tspan></text>
    <text id="TIFF_" data-name="TIFF " transform="translate(1796.081 1581)" fill="#fff" font-size="9" font-family="SegoeUI-Semibold, Segoe UI" font-weight="600"><tspan x="0" y="0">TIFF </tspan></text>
  </g>
</svg>
